<svg width="32" height="32" viewBox="0 0 32 32" fill="none" xmlns="http://www.w3.org/2000/svg">
  <!-- 올리브영 브랜드 컬러: 녹색 계열 (#2D7D32 또는 #4CAF50) -->
  <rect width="32" height="32" rx="6" fill="#2D7D32"/>
  <!-- 올리브영 스타일 아이콘: 올리브 잎 모양 -->
  <path d="M16 8C12 8 9 11 9 15C9 19 12 22 16 22C20 22 23 19 23 15C23 11 20 8 16 8ZM16 20C13.24 20 11 17.76 11 15C11 12.24 13.24 10 16 10C18.76 10 21 12.24 21 15C21 17.76 18.76 20 16 20Z" fill="white" opacity="0.9"/>
  <circle cx="16" cy="15" r="3" fill="white"/>
</svg>

